<svg version="1.1" xmlns="http://www.w3.org/2000/svg" xmlns:xlink="http://www.w3.org/1999/xlink" width="276.591" height="125.007" viewBox="0,0,276.591,125.007"><g transform="translate(-101.43783,-117.59282)"><g data-paper-data="{&quot;isPaintingLayer&quot;:true}" fill-rule="nonzero" stroke-linecap="butt" stroke-linejoin="miter" stroke-miterlimit="10" stroke-dasharray="" stroke-dashoffset="0" style="mix-blend-mode: normal"><path d="M362.16883,222.49983c-1.98,2.15 -5.62,4.69 -11.78,4.69h-1.69c-1.04,0.06 -1.85,0.09 -2.53,0.09c-0.41,0 -0.84,0.03 -1.28,0.07c-0.34,0.12 -1.02,0.36 -2.23,0.83c-3.29,1.32 -5.84,1.92 -8.28,1.92c-3.42,0 -6.64,-1.22 -9.3,-3.52c-1.57,-1.35 -2.78,-2.97 -3.59,-4.76c-1.27,-0.1 -2.88,-0.25 -4.94,-0.43h-5.21c-0.24,0 -0.47,-0.01 -0.7,-0.03c-2.6,-0.16 -5.11,-0.91 -7.44,-2.23c-4.33,-2.45 -6.91,-6.67 -6.91,-11.29c0,-5.04 2.82,-9.53 7.55,-12.02c0.15,-0.09 0.31,-0.17 0.47,-0.24c0.34,-0.16 0.68,-0.3 1.02,-0.44c0.01,-0.25 0.01,-0.51 0.02,-0.77v-7.14c0,-0.3 0.01,-0.59 0.03,-0.88c-0.56,-2.35 -0.5,-4.75 0.18,-6.97c0,-0.13 0,-0.3 -0.01,-0.52c-0.02,-0.22 -0.02,-0.44 -0.02,-0.65c0,-0.76 0.05,-1.64 0.19,-2.93c0.03,-0.33 0.06,-0.59 0.07,-0.8c-0.01,-0.24 -0.07,-1.35 -0.38,-4.9c-5.87,-2.27 -8.72,-7.33 -9.36,-11.82c-0.31,-2.16 0.03,-4.38 0.99,-6.35c2.71,-5.59 8.22,-8.93 14.74,-8.93c0.4,0 0.8,0.02 1.19,0.06c0.42,0.04 1.71,0.15 3.85,0.33c1.84,0.16 2.85,0.19 3.39,0.19h0.36c0.17,-0.02 0.3,-0.03 0.47,-0.04c1.85,-0.1 3.09,-0.17 3.71,-0.21c0.04,0 0.09,-0.01 0.13,-0.01c0.21,-0.21 0.43,-0.42 0.66,-0.62c3.2,-2.81 7.2,-4.28 11.57,-4.28c1.51,0 2.65,0.02 3.5,0.06c0.68,0.03 1.23,0.08 1.74,0.15c0.12,0.01 0.25,0.03 0.38,0.06h4.06c0.19,-0.02 0.44,-0.05 0.76,-0.08c1.25,-0.13 2.24,-0.19 3.11,-0.19c6.25,0 11.28,3.07 13.55,8.25c0.87,1.89 1.32,3.85 1.32,5.83c0,4.65 -2.58,9.59 -8.19,11.94c0.18,3.65 0.27,7.22 0.27,10.7v23c0.02,0.2 0.06,0.44 0.1,0.72c0.01,0.07 0.02,0.15 0.03,0.22c0.1,0.72 0.18,1.44 0.24,2.16c4.55,1.97 7.63,6.12 8.04,11.42c0.22,2.63 -0.3,6.51 -3.85,10.36z" fill="#ffad00" stroke="#ffffff" stroke-width="25"/><path d="M316.24783,194.14983c-0.7,7.55 -2.97,13.28 -6.92,17.45c-2.3,2.43 -5.71,4.35 -11.39,6.39c-0.11,0.04 -0.23,0.08 -0.35,0.12c-2.72,0.87 -5.69,1.32 -8.82,1.32c-4.77,0 -9.2,-0.94 -13.17,-2.79c-5.87,-2.74 -8.79,-6.57 -10.24,-9.8c-0.21,-0.35 -0.43,-0.71 -0.64,-1.1c-0.6,-1.09 -1.02,-2.27 -1.22,-3.5c-0.29,-1.72 -0.75,-4.31 -1.38,-7.75c-0.12,-0.66 -0.18,-1.32 -0.18,-1.99v-8.7c0,-1.08 0.09,-2.66 0.74,-6.94c0.63,-4.19 0.9,-5.49 1.4,-6.77c1.31,-3.49 5.23,-13.75 14.73,-15.78c3.12,-0.66 6.63,-0.75 9.95,-0.39c2.35,-3.77 6.55,-6.02 11.32,-6.02c8.28,0 12.86,5.46 13.72,10.86c0.09,0.57 0.13,1.15 0.13,1.73v13.89c0,0.01 0,0.02 0,0.02c0,0.01 0,0.01 0,0.02c0,0 0,0 0,0.01c0,0.91 -0.12,1.78 -0.32,2.63c1.93,2.19 3,4.89 3.05,7.78c0.06,2.9 -0.08,6.04 -0.41,9.31z" fill="#ffad00" stroke="#ffffff" stroke-width="25"/><path d="M282.92783,161.78083c-0.04,0.17 -0.07,0.34 -0.12,0.51c-0.15,0.63 -0.46,2.12 -0.77,5.03c0,0.05 0,0.09 -0.01,0.12c1.71,6.88 -1.17,11.07 -3.08,12.98c-0.12,0.13 -0.25,0.25 -0.39,0.37c-1.87,1.7 -5.14,3.73 -10.02,3.73c-2.43,0 -4.7,-0.54 -6.68,-1.53c0.05,2.73 0.08,6.49 0.08,11.71c1.8,0.63 3.45,1.65 4.85,2.99c2.78,2.67 4.3,6.24 4.3,10.05c0,5.66 -3.26,10.58 -8.51,12.83c-0.13,0.06 -0.27,0.12 -0.4,0.17c-1.76,0.67 -3.74,1 -6.06,1c-0.84,0 -1.74,-0.04 -2.72,-0.13c-0.6,-0.03 -1.48,-0.02 -2.52,0.01c-1.89,0.21 -4.55,0.42 -8.11,0.62c-0.07,0 -0.14,0.01 -0.22,0.01c-0.47,0.02 -0.92,0.03 -1.36,0.03c-6.37,0 -11.02,-2.02 -13.83,-5.99c-0.06,-0.08 -0.11,-0.16 -0.16,-0.24c-2.86,-4.27 -2.94,-9.67 -0.22,-14.08c0.02,-0.05 0.05,-0.09 0.08,-0.14c1.73,-2.72 4.26,-4.66 7.54,-5.8c0.04,-1.93 0.03,-4.35 -0.03,-7.22c-1.63,0.68 -3.51,1.08 -5.62,1.08c-5.57,0 -10.17,-3.31 -11.77,-8.34c-0.33,-1.02 -0.64,-2.51 -1.36,-5.87c-0.03,-0.12 -0.05,-0.24 -0.07,-0.36l-1.48,-8.27c-0.05,-0.18 -0.12,-0.39 -0.2,-0.63c-0.77,-2.19 -1.13,-4.05 -1.13,-5.85c0,-2.23 0.65,-5.6 3.73,-8.96c1.55,-1.7 4.37,-3.9 8.91,-4.61c0.56,-0.09 1.13,-0.14 1.7,-0.14h11.06c0.25,0 0.5,0.01 0.75,0.03c4.22,0.15 8,0.14 11.24,-0.01c4.53,-0.2 9.05,-0.59 13.48,-1.16c0.5,-0.16 1.04,-0.32 1.62,-0.46c0.55,-0.14 1.11,-0.23 1.67,-0.29c4.26,-0.39 8.23,0.84 11.32,3.48c3.83,3.29 5.52,8.27 4.51,13.33z" fill="#ffad00" stroke="#ffffff" stroke-width="25"/><path d="M232.45283,199.55283c-0.72,1.07 -1.62,2.02 -2.67,2.78c-1.43,1.05 -3.16,1.96 -5.45,2.86c-1.28,0.5 -2.65,0.76 -4.02,0.76c-0.21,0 -0.41,0 -0.62,-0.01l-6,-0.34h-6.35c-0.23,0 -0.47,-0.01 -0.7,-0.02c-1.37,-0.09 -2.23,-0.14 -2.56,-0.16c-0.53,-0.02 -1.07,-0.08 -1.59,-0.17c-5.15,-0.93 -9.08,-4.12 -10.8,-8.75c-0.05,-0.12 -0.09,-0.23 -0.12,-0.34c-0.8,-2.38 -1.54,-7.12 2.41,-12.24c1.92,-2.49 4.06,-3.91 5.9,-4.72v-9.59c-0.06,-1.98 -0.06,-3.98 0,-5.96v-6.03c-2.47,-1.04 -4.6,-2.69 -6.24,-4.89c-0.71,-0.94 -1.26,-1.98 -1.63,-3.1c-0.5,-1.48 -0.75,-2.98 -0.75,-4.46c0,-3.14 1.23,-13.52 17.04,-15.08c2.93,-0.31 6.06,-0.25 8.97,0.21c1.54,0.16 3.11,0.32 4.71,0.48c9.42,0.78 11.82,7.48 12.33,9.52c0.04,0.19 0.08,0.37 0.12,0.55c0.19,1 0.29,2 0.29,3c0,5.38 -2.93,9.87 -7.74,12.2v23.19c0.62,0.27 1.21,0.58 1.78,0.94c0.18,0.11 0.35,0.22 0.52,0.34c2.09,1.48 4.71,4.32 5.36,9.45c0.02,0.22 0.05,0.44 0.06,0.66c0.27,4.16 -1.08,7.14 -2.25,8.92z" fill="#ffad00" stroke="#ffffff" stroke-width="25"/><path d="M215.92783,160.78083c-0.04,0.17 -0.07,0.34 -0.12,0.51c-0.15,0.63 -0.46,2.12 -0.77,5.03c0,0.05 0,0.09 -0.01,0.12c1.71,6.88 -1.17,11.07 -3.08,12.98c-0.12,0.13 -0.25,0.25 -0.39,0.37c-1.87,1.7 -5.14,3.73 -10.02,3.73c-2.43,0 -4.7,-0.54 -6.68,-1.53c0.05,2.73 0.08,6.49 0.08,11.71c1.8,0.63 3.45,1.65 4.85,2.99c2.78,2.67 4.3,6.24 4.3,10.05c0,5.66 -3.26,10.58 -8.51,12.83c-0.13,0.06 -0.27,0.12 -0.4,0.17c-1.76,0.67 -3.74,1 -6.06,1c-0.84,0 -1.74,-0.04 -2.72,-0.13c-0.6,-0.03 -1.48,-0.02 -2.52,0.01c-1.89,0.21 -4.55,0.42 -8.11,0.62c-0.07,0 -0.14,0.01 -0.22,0.01c-0.47,0.02 -0.92,0.03 -1.36,0.03c-6.37,0 -11.02,-2.02 -13.83,-5.99c-0.06,-0.08 -0.11,-0.16 -0.16,-0.24c-2.86,-4.27 -2.94,-9.67 -0.22,-14.08c0.02,-0.05 0.05,-0.09 0.08,-0.14c1.73,-2.72 4.26,-4.66 7.54,-5.8c0.04,-1.93 0.03,-4.35 -0.03,-7.22c-1.63,0.68 -3.51,1.08 -5.62,1.08c-5.57,0 -10.17,-3.31 -11.77,-8.34c-0.33,-1.02 -0.64,-2.51 -1.36,-5.87c-0.03,-0.12 -0.05,-0.24 -0.07,-0.36l-1.48,-8.27c-0.05,-0.18 -0.12,-0.39 -0.2,-0.63c-0.77,-2.19 -1.13,-4.05 -1.13,-5.85c0,-2.23 0.65,-5.6 3.73,-8.96c1.55,-1.7 4.37,-3.9 8.91,-4.61c0.56,-0.09 1.13,-0.14 1.7,-0.14h11.06c0.25,0 0.5,0.01 0.75,0.03c4.22,0.15 8,0.14 11.24,-0.01c4.53,-0.2 9.05,-0.59 13.48,-1.16c0.5,-0.16 1.04,-0.32 1.62,-0.46c0.55,-0.14 1.11,-0.23 1.67,-0.29c4.26,-0.39 8.23,0.84 11.32,3.48c3.83,3.29 5.52,8.27 4.51,13.33z" fill="#ffad00" stroke="#ffffff" stroke-width="25"/><path d="M167.71783,195.33183c-3.23,8.95 -12.01,14.39 -26.09,16.17c-0.64,0.08 -1.27,0.13 -1.9,0.15c-0.82,1.2 -1.89,2.24 -3.15,3.05c-3.3,2.11 -6.39,3.14 -9.44,3.14c-6.27,0 -13.02,-4.68 -13.02,-14.96c0,-0.7 0.03,-1.61 0.1,-2.87c0.03,-0.54 0.06,-0.96 0.07,-1.27c-0.17,-0.78 -0.26,-1.57 -0.26,-2.37v-4.84c0,-0.79 0.08,-1.58 0.24,-2.37c0.01,-0.67 0.04,-1.42 0.09,-2.24c-0.24,-0.88 -0.42,-1.9 -0.42,-3.04c0,-0.52 0.04,-1.04 0.11,-1.55c0.38,-2.68 1.57,-5.37 3.58,-7.52c-0.69,-1.93 -1.05,-3.97 -1.05,-6.06v-5.1c0,-2.07 0.41,-4.65 2.42,-11.07c0.84,-2.76 1.11,-3.62 1.48,-4.42c1.97,-4.42 4.94,-6.63 7.1,-7.72c3.53,-1.76 7.32,-2.66 11.26,-2.66c1.82,0 3.56,0.19 5.22,0.55c0.74,-0.5 1.53,-0.92 2.37,-1.27c1.07,-0.46 2.21,-0.78 3.47,-0.98c3.15,-0.54 6.48,0.13 9.38,1.89c3.05,1.86 6.55,5.72 6.12,13.66c-0.07,1.4 -0.19,3.27 -0.37,5.71c-0.01,0.06 -0.01,0.12 -0.02,0.18c-0.16,1.77 -0.39,4.41 -0.7,7.9c0.08,1.35 0.05,2.86 -0.07,4.64c-0.05,0.68 -0.16,1.36 -0.34,2.02c-0.04,0.15 -0.08,0.29 -0.12,0.42c1.35,1.73 2.27,3.46 2.9,4.96c0.59,1.19 1.09,2.56 1.53,4.23c0.17,0.63 0.28,1.27 0.33,1.92c0.45,5.61 0.22,8.92 -0.82,11.72z" fill="#ffad00" stroke="#ffffff" stroke-width="25"/><path d="M362.16883,222.49983c-1.98,2.15 -5.62,4.69 -11.78,4.69h-1.69c-1.04,0.06 -1.85,0.09 -2.53,0.09c-0.41,0 -0.84,0.03 -1.28,0.07c-0.34,0.12 -1.02,0.36 -2.23,0.83c-3.29,1.32 -5.84,1.92 -8.28,1.92c-3.42,0 -6.64,-1.22 -9.3,-3.52c-1.57,-1.35 -2.78,-2.97 -3.59,-4.76c-1.27,-0.1 -2.88,-0.25 -4.94,-0.43h-5.21c-0.24,0 -0.47,-0.01 -0.7,-0.03c-2.6,-0.16 -5.11,-0.91 -7.44,-2.23c-4.33,-2.45 -6.91,-6.67 -6.91,-11.29c0,-5.04 2.82,-9.53 7.55,-12.02c0.15,-0.09 0.31,-0.17 0.47,-0.24c0.34,-0.16 0.68,-0.3 1.02,-0.44c0.01,-0.25 0.01,-0.51 0.02,-0.77v-7.14c0,-0.3 0.01,-0.59 0.03,-0.88c-0.56,-2.35 -0.5,-4.75 0.18,-6.97c0,-0.13 0,-0.3 -0.01,-0.52c-0.02,-0.22 -0.02,-0.44 -0.02,-0.65c0,-0.76 0.05,-1.64 0.19,-2.93c0.03,-0.33 0.06,-0.59 0.07,-0.8c-0.01,-0.24 -0.07,-1.35 -0.38,-4.9c-5.87,-2.27 -8.72,-7.33 -9.36,-11.82c-0.31,-2.16 0.03,-4.38 0.99,-6.35c2.71,-5.59 8.22,-8.93 14.74,-8.93c0.4,0 0.8,0.02 1.19,0.06c0.42,0.04 1.71,0.15 3.85,0.33c1.84,0.16 2.85,0.19 3.39,0.19h0.36c0.17,-0.02 0.3,-0.03 0.47,-0.04c1.85,-0.1 3.09,-0.17 3.71,-0.21c0.04,0 0.09,-0.01 0.13,-0.01c0.21,-0.21 0.43,-0.42 0.66,-0.62c3.2,-2.81 7.2,-4.28 11.57,-4.28c1.51,0 2.65,0.02 3.5,0.06c0.68,0.03 1.23,0.08 1.74,0.15c0.12,0.01 0.25,0.03 0.38,0.06h4.06c0.19,-0.02 0.44,-0.05 0.76,-0.08c1.25,-0.13 2.24,-0.19 3.11,-0.19c6.25,0 11.28,3.07 13.55,8.25c0.87,1.89 1.32,3.85 1.32,5.83c0,4.65 -2.58,9.59 -8.19,11.94c0.18,3.65 0.27,7.22 0.27,10.7v23c0.02,0.2 0.06,0.44 0.1,0.72c0.01,0.07 0.02,0.15 0.03,0.22c0.1,0.72 0.18,1.44 0.24,2.16c4.55,1.97 7.63,6.12 8.04,11.42c0.22,2.63 -0.3,6.51 -3.85,10.36z" fill="#ffad00" stroke="none" stroke-width="1"/><path d="M316.24783,194.14983c-0.7,7.55 -2.97,13.28 -6.92,17.45c-2.3,2.43 -5.71,4.35 -11.39,6.39c-0.11,0.04 -0.23,0.08 -0.35,0.12c-2.72,0.87 -5.69,1.32 -8.82,1.32c-4.77,0 -9.2,-0.94 -13.17,-2.79c-5.87,-2.74 -8.79,-6.57 -10.24,-9.8c-0.21,-0.35 -0.43,-0.71 -0.64,-1.1c-0.6,-1.09 -1.02,-2.27 -1.22,-3.5c-0.29,-1.72 -0.75,-4.31 -1.38,-7.75c-0.12,-0.66 -0.18,-1.32 -0.18,-1.99v-8.7c0,-1.08 0.09,-2.66 0.74,-6.94c0.63,-4.19 0.9,-5.49 1.4,-6.77c1.31,-3.49 5.23,-13.75 14.73,-15.78c3.12,-0.66 6.63,-0.75 9.95,-0.39c2.35,-3.77 6.55,-6.02 11.32,-6.02c8.28,0 12.86,5.46 13.72,10.86c0.09,0.57 0.13,1.15 0.13,1.73v13.89c0,0.01 0,0.02 0,0.02c0,0.01 0,0.01 0,0.02c0,0 0,0 0,0.01c0,0.91 -0.12,1.78 -0.32,2.63c1.93,2.19 3,4.89 3.05,7.78c0.06,2.9 -0.08,6.04 -0.41,9.31z" fill="#ffad00" stroke="none" stroke-width="1"/><path d="M282.92783,161.78083c-0.04,0.17 -0.07,0.34 -0.12,0.51c-0.15,0.63 -0.46,2.12 -0.77,5.03c0,0.05 0,0.09 -0.01,0.12c1.71,6.88 -1.17,11.07 -3.08,12.98c-0.12,0.13 -0.25,0.25 -0.39,0.37c-1.87,1.7 -5.14,3.73 -10.02,3.73c-2.43,0 -4.7,-0.54 -6.68,-1.53c0.05,2.73 0.08,6.49 0.08,11.71c1.8,0.63 3.45,1.65 4.85,2.99c2.78,2.67 4.3,6.24 4.3,10.05c0,5.66 -3.26,10.58 -8.51,12.83c-0.13,0.06 -0.27,0.12 -0.4,0.17c-1.76,0.67 -3.74,1 -6.06,1c-0.84,0 -1.74,-0.04 -2.72,-0.13c-0.6,-0.03 -1.48,-0.02 -2.52,0.01c-1.89,0.21 -4.55,0.42 -8.11,0.62c-0.07,0 -0.14,0.01 -0.22,0.01c-0.47,0.02 -0.92,0.03 -1.36,0.03c-6.37,0 -11.02,-2.02 -13.83,-5.99c-0.06,-0.08 -0.11,-0.16 -0.16,-0.24c-2.86,-4.27 -2.94,-9.67 -0.22,-14.08c0.02,-0.05 0.05,-0.09 0.08,-0.14c1.73,-2.72 4.26,-4.66 7.54,-5.8c0.04,-1.93 0.03,-4.35 -0.03,-7.22c-1.63,0.68 -3.51,1.08 -5.62,1.08c-5.57,0 -10.17,-3.31 -11.77,-8.34c-0.33,-1.02 -0.64,-2.51 -1.36,-5.87c-0.03,-0.12 -0.05,-0.24 -0.07,-0.36l-1.48,-8.27c-0.05,-0.18 -0.12,-0.39 -0.2,-0.63c-0.77,-2.19 -1.13,-4.05 -1.13,-5.85c0,-2.23 0.65,-5.6 3.73,-8.96c1.55,-1.7 4.37,-3.9 8.91,-4.61c0.56,-0.09 1.13,-0.14 1.7,-0.14h11.06c0.25,0 0.5,0.01 0.75,0.03c4.22,0.15 8,0.14 11.24,-0.01c4.53,-0.2 9.05,-0.59 13.48,-1.16c0.5,-0.16 1.04,-0.32 1.62,-0.46c0.55,-0.14 1.11,-0.23 1.67,-0.29c4.26,-0.39 8.23,0.84 11.32,3.48c3.83,3.29 5.52,8.27 4.51,13.33z" fill="#ffad00" stroke="none" stroke-width="1"/><path d="M232.45283,199.55283c-0.72,1.07 -1.62,2.02 -2.67,2.78c-1.43,1.05 -3.16,1.96 -5.45,2.86c-1.28,0.5 -2.65,0.76 -4.02,0.76c-0.21,0 -0.41,0 -0.62,-0.01l-6,-0.34h-6.35c-0.23,0 -0.47,-0.01 -0.7,-0.02c-1.37,-0.09 -2.23,-0.14 -2.56,-0.16c-0.53,-0.02 -1.07,-0.08 -1.59,-0.17c-5.15,-0.93 -9.08,-4.12 -10.8,-8.75c-0.05,-0.12 -0.09,-0.23 -0.12,-0.34c-0.8,-2.38 -1.54,-7.12 2.41,-12.24c1.92,-2.49 4.06,-3.91 5.9,-4.72v-9.59c-0.06,-1.98 -0.06,-3.98 0,-5.96v-6.03c-2.47,-1.04 -4.6,-2.69 -6.24,-4.89c-0.71,-0.94 -1.26,-1.98 -1.63,-3.1c-0.5,-1.48 -0.75,-2.98 -0.75,-4.46c0,-3.14 1.23,-13.52 17.04,-15.08c2.93,-0.31 6.06,-0.25 8.97,0.21c1.54,0.16 3.11,0.32 4.71,0.48c9.42,0.78 11.82,7.48 12.33,9.52c0.04,0.19 0.08,0.37 0.12,0.55c0.19,1 0.29,2 0.29,3c0,5.38 -2.93,9.87 -7.74,12.2v23.19c0.62,0.27 1.21,0.58 1.78,0.94c0.18,0.11 0.35,0.22 0.52,0.34c2.09,1.48 4.71,4.32 5.36,9.45c0.02,0.22 0.05,0.44 0.06,0.66c0.27,4.16 -1.08,7.14 -2.25,8.92z" fill="#ffad00" stroke="none" stroke-width="1"/><path d="M215.92783,160.78083c-0.04,0.17 -0.07,0.34 -0.12,0.51c-0.15,0.63 -0.46,2.12 -0.77,5.03c0,0.05 0,0.09 -0.01,0.12c1.71,6.88 -1.17,11.07 -3.08,12.98c-0.12,0.13 -0.25,0.25 -0.39,0.37c-1.87,1.7 -5.14,3.73 -10.02,3.73c-2.43,0 -4.7,-0.54 -6.68,-1.53c0.05,2.73 0.08,6.49 0.08,11.71c1.8,0.63 3.45,1.65 4.85,2.99c2.78,2.67 4.3,6.24 4.3,10.05c0,5.66 -3.26,10.58 -8.51,12.83c-0.13,0.06 -0.27,0.12 -0.4,0.17c-1.76,0.67 -3.74,1 -6.06,1c-0.84,0 -1.74,-0.04 -2.72,-0.13c-0.6,-0.03 -1.48,-0.02 -2.52,0.01c-1.89,0.21 -4.55,0.42 -8.11,0.62c-0.07,0 -0.14,0.01 -0.22,0.01c-0.47,0.02 -0.92,0.03 -1.36,0.03c-6.37,0 -11.02,-2.02 -13.83,-5.99c-0.06,-0.08 -0.11,-0.16 -0.16,-0.24c-2.86,-4.27 -2.94,-9.67 -0.22,-14.08c0.02,-0.05 0.05,-0.09 0.08,-0.14c1.73,-2.72 4.26,-4.66 7.54,-5.8c0.04,-1.93 0.03,-4.35 -0.03,-7.22c-1.63,0.68 -3.51,1.08 -5.62,1.08c-5.57,0 -10.17,-3.31 -11.77,-8.34c-0.33,-1.02 -0.64,-2.51 -1.36,-5.87c-0.03,-0.12 -0.05,-0.24 -0.07,-0.36l-1.48,-8.27c-0.05,-0.18 -0.12,-0.39 -0.2,-0.63c-0.77,-2.19 -1.13,-4.05 -1.13,-5.85c0,-2.23 0.65,-5.6 3.73,-8.96c1.55,-1.7 4.37,-3.9 8.91,-4.61c0.56,-0.09 1.13,-0.14 1.7,-0.14h11.06c0.25,0 0.5,0.01 0.75,0.03c4.22,0.15 8,0.14 11.24,-0.01c4.53,-0.2 9.05,-0.59 13.48,-1.16c0.5,-0.16 1.04,-0.32 1.62,-0.46c0.55,-0.14 1.11,-0.23 1.67,-0.29c4.26,-0.39 8.23,0.84 11.32,3.48c3.83,3.29 5.52,8.27 4.51,13.33z" fill="#ffad00" stroke="none" stroke-width="1"/><path d="M167.71783,195.33183c-3.23,8.95 -12.01,14.39 -26.09,16.17c-0.64,0.08 -1.27,0.13 -1.9,0.15c-0.82,1.2 -1.89,2.24 -3.15,3.05c-3.3,2.11 -6.39,3.14 -9.44,3.14c-6.27,0 -13.02,-4.68 -13.02,-14.96c0,-0.7 0.03,-1.61 0.1,-2.87c0.03,-0.54 0.06,-0.96 0.07,-1.27c-0.17,-0.78 -0.26,-1.57 -0.26,-2.37v-4.84c0,-0.79 0.08,-1.58 0.24,-2.37c0.01,-0.67 0.04,-1.42 0.09,-2.24c-0.24,-0.88 -0.42,-1.9 -0.42,-3.04c0,-0.52 0.04,-1.04 0.11,-1.55c0.38,-2.68 1.57,-5.37 3.58,-7.52c-0.69,-1.93 -1.05,-3.97 -1.05,-6.06v-5.1c0,-2.07 0.41,-4.65 2.42,-11.07c0.84,-2.76 1.11,-3.62 1.48,-4.42c1.97,-4.42 4.94,-6.63 7.1,-7.72c3.53,-1.76 7.32,-2.66 11.26,-2.66c1.82,0 3.56,0.19 5.22,0.55c0.74,-0.5 1.53,-0.92 2.37,-1.27c1.07,-0.46 2.21,-0.78 3.47,-0.98c3.15,-0.54 6.48,0.13 9.38,1.89c3.05,1.86 6.55,5.72 6.12,13.66c-0.07,1.4 -0.19,3.27 -0.37,5.71c-0.01,0.06 -0.01,0.12 -0.02,0.18c-0.16,1.77 -0.39,4.41 -0.7,7.9c0.08,1.35 0.05,2.86 -0.07,4.64c-0.05,0.68 -0.16,1.36 -0.34,2.02c-0.04,0.15 -0.08,0.29 -0.12,0.42c1.35,1.73 2.27,3.46 2.9,4.96c0.59,1.19 1.09,2.56 1.53,4.23c0.17,0.63 0.28,1.27 0.33,1.92c0.45,5.61 0.22,8.92 -0.82,11.72z" fill="#ffad00" stroke="none" stroke-width="1"/><path d="M157.57383,184.49583c0.293,3.637 0.233,5.981 -0.176,7.037c-1.702,4.809 -7.42,7.828 -17.152,9.06c-3.285,0.411 -6.568,-1.143 -9.853,-4.662c0,0.528 0.117,2.111 0.353,4.751c0.176,1.935 0.146,3.518 -0.088,4.749c-1.467,0.938 -2.639,1.408 -3.519,1.408c-1.35,0 -2.023,-1.319 -2.023,-3.959c0,-0.469 0.029,-1.216 0.088,-2.242c0.058,-1.025 0.088,-1.744 0.088,-2.155c0,-0.997 -0.088,-1.7 -0.264,-2.111v-4.838c0,-0.117 0.029,-0.249 0.088,-0.396c0.058,-0.146 0.117,-0.278 0.176,-0.396c-0.059,-0.82 -0.03,-2.081 0.088,-3.782c0.117,-1.056 0.117,-1.729 0,-2.023c-0.294,-0.585 -0.439,-0.937 -0.439,-1.055c0.233,-1.642 1.437,-2.463 3.606,-2.463c1.407,0 2.257,0.499 2.551,1.495c0,0.938 0.117,2.317 0.352,4.134c0.353,2.111 1.466,4.223 3.343,6.333c2.052,2.405 4.016,3.519 5.894,3.343c2.111,-0.233 4.222,-0.732 6.333,-1.495c2.932,-1.056 4.691,-2.287 5.278,-3.694c0.409,-1.056 0.615,-2.169 0.615,-3.343c0,-3.576 -1.319,-6.245 -3.958,-8.004c-1.174,-0.762 -3.343,-1.378 -6.51,-1.848c-1.818,-0.233 -2.933,-0.352 -3.342,-0.352c-2.815,0.059 -5.44,-0.85 -7.873,-2.727c-2.434,-1.876 -3.65,-4.047 -3.65,-6.51v-5.101c0,-1.113 0.645,-3.723 1.936,-7.828c0.585,-1.936 0.908,-2.961 0.968,-3.079c0.527,-1.231 1.201,-2.052 2.022,-2.463c1.993,-0.996 4.104,-1.495 6.333,-1.495c4.339,0 7.535,1.759 9.588,5.277c0.176,0.176 0.469,0.44 0.88,0.792c0.058,-0.82 0.176,-2.081 0.352,-3.782c-0.059,-0.762 -0.118,-1.495 -0.176,-2.199c0,-0.82 0.409,-1.377 1.231,-1.671c0.234,-0.117 0.557,-0.205 0.968,-0.264c0.586,-0.117 1.217,0.03 1.892,0.439c0.673,0.411 0.952,1.643 0.835,3.694c-0.059,1.29 -0.176,3.108 -0.352,5.453c-0.176,1.936 -0.439,4.897 -0.792,8.885c0.117,0.938 0.117,2.229 0,3.87c-0.294,1.114 -1.174,1.671 -2.639,1.671c-0.763,0 -1.495,-0.205 -2.199,-0.615c-0.352,-1.113 -0.527,-1.584 -0.527,-1.408c0.116,-1.583 -0.206,-3.694 -0.968,-6.333c-0.646,-1.348 -1.539,-3.268 -2.683,-5.761c-1.144,-2.492 -2.654,-3.827 -4.53,-4.003c-2.346,-0.176 -3.87,0.616 -4.574,2.375c-0.234,0.763 -0.558,1.878 -0.967,3.343c-0.704,2.17 -1.144,4.252 -1.32,6.245c-0.059,0.646 -0.118,0.91 -0.176,0.792c0.176,1.174 0.381,2.346 0.616,3.519c0.293,1.466 1.012,2.581 2.155,3.342c1.144,0.763 3.327,1.231 6.553,1.407c7.916,0.471 12.812,3.227 14.689,8.269c0.292,0.47 0.585,1.261 0.879,2.374z" fill="#ffffff" stroke="none" stroke-width="1"/><path d="M205.13983,158.62482c-0.41,1.643 -0.762,3.87 -1.055,6.685c-0.119,1.408 -0.061,2.551 0.176,3.431c0.408,1.467 0.381,2.435 -0.088,2.903c-0.646,0.586 -1.525,0.879 -2.639,0.879c-1.291,0 -2.143,-0.383 -2.551,-1.151c-0.061,-2.362 -0.031,-4.578 0.088,-6.646c0.115,-2.54 0.176,-3.869 0.176,-3.987c-0.061,0 -0.148,-0.059 -0.264,-0.178c-5.455,0.237 -10.586,0.589 -15.394,1.059c-0.118,0.589 -0.118,1.528 0,2.82c0.233,1.822 0.352,2.88 0.352,3.172c-0.234,1.822 -0.352,4.524 -0.352,8.109c0.233,1.528 0.352,8.08 0.352,19.655v6.435c0,0.999 0.145,1.704 0.436,2.115h5.401c0.987,-0.117 1.785,0.118 2.396,0.704c0.609,0.587 0.914,1.29 0.914,2.11c0,1.289 -0.615,2.199 -1.847,2.728c-0.763,0.292 -2.111,0.352 -4.046,0.176c-0.938,-0.06 -2.317,-0.06 -4.135,0c-1.642,0.204 -4.28,0.409 -7.916,0.615c-3.167,0.117 -5.102,-0.323 -5.806,-1.319c-0.47,-0.703 -0.47,-1.437 0,-2.199c0.82,-1.289 2.961,-1.935 6.422,-1.935c1.231,0 1.992,-0.102 2.286,-0.307c0.293,-0.205 0.44,-0.601 0.44,-1.187c0,-0.526 0,-1.023 0,-1.492c0,-0.877 0,-2.165 0,-3.862c0.176,-2.983 0.176,-7.432 0,-13.343c-0.235,-8.485 -0.118,-15.945 0.352,-22.383c-0.059,-0.058 -0.147,-0.146 -0.266,-0.264c-2.123,0.118 -5.543,0.059 -10.26,-0.177c-0.531,0 -2.331,0.119 -5.396,0.353c0.762,5.337 1.231,9.354 1.407,12.051c0,0.352 -0.059,1.144 -0.176,2.375c-0.059,0.879 -0.792,1.319 -2.199,1.319c-0.763,0 -1.202,-0.262 -1.319,-0.785c-0.059,-0.115 -0.411,-1.687 -1.056,-4.711c-0.352,-1.977 -0.851,-4.769 -1.495,-8.375c0,-0.23 -0.206,-0.957 -0.615,-2.18c-0.35,-0.989 -0.525,-1.745 -0.525,-2.268c0,-0.406 0.277,-0.917 0.836,-1.526c0.557,-0.61 1.393,-1.004 2.507,-1.179c0.176,0 0.453,0 0.836,0c0.38,0 0.688,0 0.923,0c6.979,0 10.028,0 9.148,0c4.75,0.177 8.972,0.177 12.666,0c5.277,-0.233 10.495,-0.703 15.657,-1.407c0.352,-0.176 0.879,-0.352 1.582,-0.527c1.291,-0.117 2.346,0.176 3.168,0.88c0.82,0.702 1.113,1.641 0.879,2.814z" fill="#ffffff" stroke="none" stroke-width="1"/><path d="M223.63783,142.97083c0.058,0.294 0.088,0.587 0.088,0.88c0,1.407 -0.938,2.317 -2.814,2.727c-1.583,0.118 -3.138,0.264 -4.662,0.439c-0.47,0.06 -0.675,0.353 -0.615,0.88c0.058,0.47 0.116,0.938 0.176,1.407c0,1.467 0.058,3.606 0.176,6.421v33.073c0.533,0.118 1.75,0.177 3.647,0.177c1.542,-0.059 2.639,0.118 3.292,0.527c0.415,0.294 0.683,0.91 0.801,1.848c0.058,0.879 -0.088,1.583 -0.438,2.11c-0.643,0.471 -1.635,0.968 -2.978,1.496l-6.308,-0.353h-2.103c-2.103,0 -3.622,0 -4.557,0c-1.812,-0.116 -2.774,-0.176 -2.89,-0.176c-1.287,-0.233 -2.104,-0.82 -2.453,-1.759c-0.177,-0.528 0.052,-1.201 0.687,-2.023c0.634,-0.82 1.296,-1.319 1.986,-1.495c1.61,0.059 3.681,-0.117 6.211,-0.528c0,-3.283 0,-9.676 0,-19.175c-0.06,-1.876 -0.06,-3.753 0,-5.63c0,-2.345 0,-3.987 0,-4.926v-5.894c0.058,-1.407 -0.088,-3.283 -0.44,-5.629c-2.053,0.352 -3.372,0.527 -3.958,0.527c-1.818,0 -3.166,-0.585 -4.046,-1.759c-0.118,-0.353 -0.176,-0.674 -0.176,-0.968c0,-2.287 2.375,-3.664 7.125,-4.135c2.228,-0.233 4.367,-0.176 6.421,0.177c1.7,0.176 3.431,0.352 5.189,0.527c1.584,0.121 2.464,0.53 2.639,1.234z" fill="#ffffff" stroke="none" stroke-width="1"/><path d="M272.13983,159.62482c-0.41,1.643 -0.762,3.87 -1.055,6.685c-0.119,1.408 -0.061,2.551 0.176,3.431c0.408,1.467 0.381,2.435 -0.088,2.903c-0.646,0.586 -1.525,0.879 -2.639,0.879c-1.291,0 -2.143,-0.383 -2.551,-1.151c-0.061,-2.362 -0.031,-4.578 0.088,-6.646c0.115,-2.54 0.176,-3.869 0.176,-3.987c-0.061,0 -0.148,-0.059 -0.264,-0.178c-5.455,0.237 -10.586,0.589 -15.394,1.059c-0.118,0.589 -0.118,1.528 0,2.82c0.233,1.822 0.352,2.88 0.352,3.172c-0.234,1.822 -0.352,4.524 -0.352,8.109c0.233,1.528 0.352,8.08 0.352,19.655v6.435c0,0.999 0.145,1.704 0.436,2.115h5.401c0.987,-0.117 1.785,0.118 2.396,0.704c0.609,0.587 0.914,1.29 0.914,2.11c0,1.289 -0.615,2.199 -1.847,2.728c-0.763,0.292 -2.111,0.352 -4.046,0.176c-0.938,-0.06 -2.317,-0.06 -4.135,0c-1.642,0.204 -4.28,0.409 -7.916,0.615c-3.167,0.117 -5.102,-0.323 -5.806,-1.319c-0.47,-0.703 -0.47,-1.437 0,-2.199c0.82,-1.289 2.961,-1.935 6.422,-1.935c1.231,0 1.992,-0.102 2.286,-0.307c0.293,-0.205 0.44,-0.601 0.44,-1.187c0,-0.526 0,-1.023 0,-1.492c0,-0.877 0,-2.165 0,-3.862c0.176,-2.983 0.176,-7.432 0,-13.343c-0.235,-8.485 -0.118,-15.945 0.352,-22.383c-0.059,-0.058 -0.147,-0.146 -0.266,-0.264c-2.123,0.118 -5.543,0.059 -10.26,-0.177c-0.531,0 -2.331,0.119 -5.396,0.353c0.762,5.337 1.231,9.354 1.407,12.051c0,0.352 -0.059,1.144 -0.176,2.375c-0.059,0.879 -0.792,1.319 -2.199,1.319c-0.763,0 -1.202,-0.262 -1.319,-0.785c-0.059,-0.115 -0.411,-1.687 -1.056,-4.711c-0.352,-1.977 -0.851,-4.769 -1.495,-8.375c0,-0.23 -0.206,-0.957 -0.615,-2.18c-0.35,-0.989 -0.525,-1.745 -0.525,-2.268c0,-0.406 0.277,-0.917 0.836,-1.526c0.557,-0.61 1.393,-1.004 2.507,-1.179c0.176,0 0.453,0 0.836,0c0.38,0 0.688,0 0.923,0c6.979,0 10.028,0 9.148,0c4.75,0.177 8.972,0.177 12.666,0c5.277,-0.233 10.495,-0.703 15.657,-1.407c0.352,-0.176 0.879,-0.352 1.582,-0.527c1.291,-0.117 2.346,0.176 3.168,0.88c0.82,0.702 1.113,1.641 0.879,2.814z" fill="#ffffff" stroke="none" stroke-width="1"/><path d="M305.65683,185.02783c0.057,2.463 -0.059,5.132 -0.352,8.004c-0.471,5.044 -1.789,8.708 -3.959,10.995c-0.998,1.056 -3.372,2.258 -7.124,3.606c-1.643,0.528 -3.461,0.792 -5.454,0.792c-3.166,0 -6.011,-0.586 -8.532,-1.76c-2.757,-1.289 -4.457,-2.96 -5.102,-5.014c-0.234,-0.293 -0.499,-0.703 -0.791,-1.231c-0.295,-1.759 -0.763,-4.397 -1.408,-7.916v-8.708c0,-0.821 0.205,-2.58 0.616,-5.278c0.409,-2.696 0.674,-4.191 0.792,-4.485c2.052,-5.454 4.31,-8.444 6.772,-8.973c1.113,-0.233 2.345,-0.352 3.694,-0.352c4.339,0 8.269,1.056 11.787,3.167c0.233,0.118 0.527,0.176 0.879,0.176c0.059,-0.176 0.117,-0.908 0.177,-2.199c0.058,0 0.058,-1.025 0,-3.078c-0.06,-1.408 0.079,-2.404 0.416,-2.991c0.335,-0.585 1.008,-0.88 2.014,-0.88c1.73,0 2.68,0.528 2.848,1.584c0,0.059 0,2.229 0,6.509c0,3.226 0,5.249 0,6.069c0,0.998 0,1.438 0,1.319c-0.236,0.88 -0.646,1.407 -1.232,1.583c-1.582,0.528 -2.668,0.559 -3.254,0.088c-0.294,0 -0.615,-0.088 -0.968,-0.264c-0.294,-0.82 -0.938,-1.904 -1.935,-3.254c-1.35,-1.113 -3.109,-2.081 -5.277,-2.903c-2.171,-0.82 -4.018,-1.231 -5.542,-1.231c-1.936,0 -3.489,1.495 -4.662,4.486c-1.643,4.105 -2.375,9.411 -2.199,15.921c0.117,2.874 0.205,4.692 0.265,5.453c0.292,2.405 0.938,4.457 1.935,6.157c0.704,1.174 1.788,2.142 3.255,2.903c1.465,0.763 2.902,1.173 4.31,1.231c6.979,0.294 11.053,-2.785 12.228,-9.236c0.645,-3.459 0.703,-6.362 0.176,-8.708c-0.119,-0.469 -0.061,-1.1 0.176,-1.892c0.232,-0.791 1.26,-1.275 3.078,-1.451c0.41,0 0.908,0.191 1.496,0.572c0.582,0.384 0.877,0.779 0.877,1.189z" fill="#ffffff" stroke="none" stroke-width="1"/><path d="M355.05283,213.02583c0.058,0.585 -0.265,1.26 -0.968,2.022c-0.704,0.762 -1.936,1.144 -3.694,1.144c-0.411,0 -1.086,0 -2.023,0c-0.938,0.058 -1.671,0.088 -2.199,0.088c-1.114,0 -2.258,0.088 -3.43,0.265c-0.646,0.116 -2.023,0.585 -4.135,1.407c-1.877,0.761 -3.284,1.144 -4.222,1.144c-0.763,0 -1.467,-0.279 -2.111,-0.836c-0.646,-0.558 -0.967,-1.218 -0.967,-1.979c0,-1.231 1.436,-2.198 4.31,-2.902c4.163,-1.056 6.303,-1.613 6.421,-1.671c-0.118,-3.752 -0.264,-8.062 -0.439,-12.931c-0.176,-4.574 -0.265,-6.743 -0.265,-6.509v-4.926c0,-0.059 0,-0.498 0,-1.32c0.059,-0.645 0.059,-1.112 0,-1.407c-0.059,-0.527 -0.264,-0.849 -0.615,-0.967c-0.059,-0.059 -0.938,-0.089 -2.639,-0.089c-2.933,0.06 -6.333,0.471 -10.203,1.231c-1.467,0.353 -3.666,0.852 -6.598,1.496v12.578c0.058,0.235 0.088,1.379 0.088,3.431c0,1.643 0.177,2.639 0.528,2.99c0.293,0.118 1.847,0.235 4.662,0.353c1.935,0.059 3.136,0.763 3.606,2.11c0.116,0.353 -0.016,0.88 -0.396,1.584c-0.382,0.703 -0.777,1.144 -1.188,1.319c-0.938,0.352 -1.583,0.527 -1.935,0.527c-1.291,-0.059 -4.486,-0.323 -9.588,-0.791h-5.718c-0.938,-0.06 -1.847,-0.339 -2.727,-0.836c-0.88,-0.498 -1.319,-1.069 -1.319,-1.716c0,-0.937 0.557,-1.699 1.671,-2.286c0.88,-0.41 1.848,-0.616 2.903,-0.616c0.409,0 1.144,0.016 2.198,0.044c1.056,0.03 1.817,0.016 2.287,-0.044c-0.118,-2.277 -0.118,-5.753 0,-10.428c0,0.06 0,-2.365 0,-7.271c0,-0.175 0.073,-0.54 0.221,-1.096c0.146,-0.555 0.22,-0.979 0.22,-1.27c-0.235,-0.234 -0.471,-0.584 -0.704,-1.052c-0.118,-0.467 -0.118,-0.875 0,-1.228c0.41,-0.935 0.557,-2.394 0.439,-4.381c0,-0.35 0.045,-0.948 0.133,-1.795c0.088,-0.847 0.132,-1.476 0.132,-1.885c0,-0.759 -0.147,-2.774 -0.44,-6.046v-7.273c0,-0.349 -0.115,-0.904 -0.345,-1.664c-1.612,0.176 -2.793,0.264 -3.54,0.264c-3.34,0 -5.182,-1.201 -5.526,-3.606c0.879,-1.816 2.491,-2.727 4.838,-2.727c-0.06,0 1.319,0.118 4.134,0.352c2.639,0.235 4.544,0.294 5.718,0.176c3.283,-0.176 4.75,-0.264 4.397,-0.264c3.225,0 4.662,0.968 4.311,2.903c-0.294,1.407 -1.643,2.141 -4.047,2.198c-1.818,0.06 -3.605,0.118 -5.365,0.176c0.308,2.054 0.513,4.341 0.616,6.861c0,1.583 0,3.842 0,6.773c0,3.166 0,5.453 0,6.86c0.058,0.06 0.146,0.118 0.264,0.176c0.938,0.06 1.876,0.088 2.814,0.088c2.169,0 4.955,-0.176 8.356,-0.527c4.574,-0.527 7.357,-0.82 8.355,-0.88c0.293,-1.876 0.44,-4.104 0.44,-6.685c0,-4.867 -0.411,-10.32 -1.231,-16.361c0.058,0 -1.114,0 -3.519,0c-1.231,0 -2.346,-0.225 -3.343,-0.677c-0.997,-0.452 -1.495,-1.372 -1.495,-2.76c0,-0.603 0.205,-1.085 0.616,-1.446c1.172,-1.025 2.608,-1.538 4.31,-1.538c3.167,0 4.456,0.088 3.87,0.264h6.069c0.233,0 0.776,-0.044 1.627,-0.132c0.85,-0.088 1.51,-0.132 1.979,-0.132c1.876,0 3.049,0.589 3.519,1.762c0.233,0.471 0.352,0.912 0.352,1.321c0,1.292 -1.202,2.056 -3.606,2.291c-1.759,0.06 -3.519,0.118 -5.277,0.176c0.645,6.987 0.968,13.711 0.968,20.171v23.343c0,0.353 0.075,1.029 0.227,2.026c0.2,1.527 0.301,3.024 0.301,4.492c-0.059,2.643 -0.059,4.699 0,6.167c0.117,0.176 0.233,0.321 0.352,0.439c2.873,-0.411 4.28,-0.615 4.223,-0.615c2.111,0.002 3.224,0.851 3.342,2.553z" fill="#ffffff" stroke="none" stroke-width="1"/></g></g></svg>